# xmcd CD database file
#
# Track frame offsets:
#	183
#	18958
#	31183
#	48090
#	61175
#	72953
#	96683
#	111420
#	128893
#	148435
#	169413
#	204173
#	222025
#	244133
#
# Disc length: 3423 seconds
#
# Revision: 0
# Processed by: cddbd v1.4PL0 Copyright (c) Steve Scherf et al.
# Submitted via: CDex 1.50Beta3
#
DISCID=cf0d5d0e
DTITLE=Muddy Waters - Muddy Waters
DYEAR=1900
DGENRE=Blues
TTITLE0=Can't Get No Grindin
TTITLE1=Trouble No More
TTITLE2=Garbage Man
TTITLE3=I'm A Hoochie Coochie Man
TTITLE4=Baby Please Don't Go
TTITLE5=Manish Boy
TTITLE6=Everything Gonna Be Allright
TTITLE7=Walking Blues
TTITLE8=Rollin And Tumblin'
TTITLE9=Blues Straight Ahead
TTITLE10=Big Seven Blues
TTITLE11=Don't The Sun Look Lonesome
TTITLE12=Howlin' Wolf
TTITLE13=We've Got Our Mojo Working
EXTD=
EXTT0=
EXTT1=
EXTT2=
EXTT3=
EXTT4=
EXTT5=
EXTT6=
EXTT7=
EXTT8=
EXTT9=
EXTT10=
EXTT11=
EXTT12=
EXTT13=
PLAYORDER=
